<?xml version="1.0" encoding="UTF-8" standalone="yes"?><svg xmlns="http://www.w3.org/2000/svg" xmlns:xlink="http://www.w3.org/1999/xlink" height="275px" style="width:152px;height:275px;" version="1.1" viewBox="0 0 152 275" width="152px"><defs><filter height="300%" id="f1" width="300%" x="-1" y="-1"><feGaussianBlur result="blurOut" stdDeviation="2.0"/><feColorMatrix in="blurOut" result="blurOut2" type="matrix" values="0 0 0 0 0 0 0 0 0 0 0 0 0 0 0 0 0 0 .4 0"/><feOffset dx="4.0" dy="4.0" in="blurOut2" result="blurOut3"/><feBlend in="SourceGraphic" in2="blurOut3" mode="normal"/></filter></defs><g><ellipse cx="72.5" cy="20" fill="#000000" filter="url(#f1)" rx="10" ry="10" style="stroke: none; stroke-width: 1.0;"/><rect fill="#FEFECE" filter="url(#f1)" height="35.0938" rx="12.5" ry="12.5" style="stroke: #A80036; stroke-width: 1.5;" width="72" x="36.5" y="94"/><text fill="#000000" font-family="sans-serif" font-size="12" lengthAdjust="spacingAndGlyphs" textLength="52" x="46.5" y="116.457">read data</text><rect fill="#FEFECE" filter="url(#f1)" height="35.0938" rx="12.5" ry="12.5" style="stroke: #A80036; stroke-width: 1.5;" width="125" x="10" y="149.0938"/><text fill="#000000" font-family="sans-serif" font-size="12" lengthAdjust="spacingAndGlyphs" textLength="105" x="20" y="171.5508">generate diagrams</text><polygon fill="#FEFECE" filter="url(#f1)" points="72.5,50,84.5,62,72.5,74,60.5,62,72.5,50" style="stroke: #A80036; stroke-width: 1.5;"/><polygon fill="#FEFECE" filter="url(#f1)" points="45.5,204.1875,99.5,204.1875,111.5,216.1875,99.5,228.1875,45.5,228.1875,33.5,216.1875,45.5,204.1875" style="stroke: #A80036; stroke-width: 1.5;"/><text fill="#000000" font-family="sans-serif" font-size="11" lengthAdjust="spacingAndGlyphs" textLength="54" x="45.5" y="220.6885">more data?</text><ellipse cx="72.5" cy="258.1875" fill="none" filter="url(#f1)" rx="10" ry="10" style="stroke: #000000; stroke-width: 1.0;"/><ellipse cx="73" cy="258.6875" fill="#000000" filter="url(#f1)" rx="6" ry="6" style="stroke: none; stroke-width: 1.0;"/><line style="stroke: #A80036; stroke-width: 1.5;" x1="72.5" x2="72.5" y1="129.0938" y2="149.0938"/><polygon fill="#A80036" points="68.5,139.0938,72.5,149.0938,76.5,139.0938,72.5,143.0938" style="stroke: #A80036; stroke-width: 1.0;"/><line style="stroke: #A80036; stroke-width: 1.5;" x1="72.5" x2="72.5" y1="74" y2="94"/><polygon fill="#A80036" points="68.5,84,72.5,94,76.5,84,72.5,88" style="stroke: #A80036; stroke-width: 1.0;"/><line style="stroke: #A80036; stroke-width: 1.5;" x1="111.5" x2="147" y1="216.1875" y2="216.1875"/><polygon fill="#A80036" points="143,165.5938,147,155.5938,151,165.5938,147,161.5938" style="stroke: #A80036; stroke-width: 1.5;"/><line style="stroke: #A80036; stroke-width: 1.5;" x1="147" x2="147" y1="62" y2="216.1875"/><line style="stroke: #A80036; stroke-width: 1.5;" x1="147" x2="84.5" y1="62" y2="62"/><polygon fill="#A80036" points="94.5,58,84.5,62,94.5,66,90.5,62" style="stroke: #A80036; stroke-width: 1.0;"/><line style="stroke: #A80036; stroke-width: 1.5;" x1="72.5" x2="72.5" y1="184.1875" y2="204.1875"/><polygon fill="#A80036" points="68.5,194.1875,72.5,204.1875,76.5,194.1875,72.5,198.1875" style="stroke: #A80036; stroke-width: 1.0;"/><line style="stroke: #A80036; stroke-width: 1.5;" x1="72.5" x2="72.5" y1="30" y2="50"/><polygon fill="#A80036" points="68.5,40,72.5,50,76.5,40,72.5,44" style="stroke: #A80036; stroke-width: 1.0;"/><line style="stroke: #A80036; stroke-width: 1.5;" x1="72.5" x2="72.5" y1="228.1875" y2="248.1875"/><polygon fill="#A80036" points="68.5,238.1875,72.5,248.1875,76.5,238.1875,72.5,242.1875" style="stroke: #A80036; stroke-width: 1.0;"/></g></svg>