<?xml version="1.0" encoding="UTF-8" standalone="yes"?><svg xmlns="http://www.w3.org/2000/svg" xmlns:xlink="http://www.w3.org/1999/xlink" height="169px" style="width:486px;height:169px;" version="1.1" viewBox="0 0 486 169" width="486px"><defs><filter height="300%" id="f1" width="300%" x="-1" y="-1"><feGaussianBlur result="blurOut" stdDeviation="2.0"/><feColorMatrix in="blurOut" result="blurOut2" type="matrix" values="0 0 0 0 0 0 0 0 0 0 0 0 0 0 0 0 0 0 .4 0"/><feOffset dx="4.0" dy="4.0" in="blurOut2" result="blurOut3"/><feBlend in="SourceGraphic" in2="blurOut3" mode="normal"/></filter></defs><g><ellipse cx="45.5" cy="20.5" fill="#FEFECE" filter="url(#f1)" rx="8" ry="8" style="stroke: #A80036; stroke-width: 2.0;"/><text fill="#000000" font-family="sans-serif" font-size="14" lengthAdjust="spacingAndGlyphs" textLength="79" x="6" y="44.0332">Data Access</text><rect fill="#FEFECE" filter="url(#f1)" height="37.6094" style="stroke: #A80036; stroke-width: 1.5;" width="125" x="155" y="10.5"/><rect fill="#FEFECE" height="5" style="stroke: #A80036; stroke-width: 1.5;" width="10" x="150" y="15.5"/><rect fill="#FEFECE" height="5" style="stroke: #A80036; stroke-width: 1.5;" width="10" x="150" y="38.1094"/><text fill="#000000" font-family="sans-serif" font-size="14" lengthAdjust="spacingAndGlyphs" textLength="105" x="165" y="35.0332">First Component</text><ellipse cx="217.5" cy="138" fill="#FEFECE" filter="url(#f1)" rx="8" ry="8" style="stroke: #A80036; stroke-width: 2.0;"/><text fill="#000000" font-family="sans-serif" font-size="14" lengthAdjust="spacingAndGlyphs" textLength="36" x="199.5" y="161.5332">HTTP</text><polygon fill="#FBFB77" filter="url(#f1)" points="7.5,134,7.5,160.3516,129.5,160.3516,129.5,144,119.5,134,7.5,134" style="stroke: #A80036; stroke-width: 1.0;"/><polygon fill="#FBFB77" points="7.5,134,7.5,160.3516,129.5,160.3516,129.5,152,199.305,147,129.5,144,129.5,144,119.5,134,7.5,134" style="stroke: #A80036; stroke-width: 1.0;"/><line style="stroke: #A80036; stroke-width: 1.0;" x1="119.5" x2="119.5" y1="134" y2="144"/><line style="stroke: #A80036; stroke-width: 1.0;" x1="129.5" x2="119.5" y1="144" y2="144"/><text fill="#000000" font-family="sans-serif" font-size="13" lengthAdjust="spacingAndGlyphs" textLength="101" x="13.5" y="152.4951">Web Service only</text><polygon fill="#FBFB77" filter="url(#f1)" points="349.5,8,349.5,50.7031,477.5,50.7031,477.5,18,467.5,8,349.5,8" style="stroke: #A80036; stroke-width: 1.0;"/><polygon fill="#FBFB77" points="349.5,8,349.5,25.5,280.281,29.5,349.5,33.5,349.5,50.7031,477.5,50.7031,477.5,18,467.5,8,349.5,8" style="stroke: #A80036; stroke-width: 1.0;"/><line style="stroke: #A80036; stroke-width: 1.0;" x1="467.5" x2="467.5" y1="8" y2="18"/><line style="stroke: #A80036; stroke-width: 1.0;" x1="477.5" x2="467.5" y1="18" y2="18"/><text fill="#000000" font-family="sans-serif" font-size="13" lengthAdjust="spacingAndGlyphs" textLength="91" x="355.5" y="26.4951">A note can also</text><text fill="#000000" font-family="sans-serif" font-size="13" lengthAdjust="spacingAndGlyphs" textLength="107" x="355.5" y="42.8467">be on several lines</text><path d="M85.1406,29.5 C108.407,29.5 131.673,29.5 154.94,29.5 " fill="none" style="stroke: #A80036; stroke-width: 1.0;"/><path d="M217.5,48.547 C217.5,68.8699 217.5,101.9076 217.5,123.7961 " fill="none" style="stroke: #A80036; stroke-width: 1.0; stroke-dasharray: 7.0,7.0;"/><polygon fill="#A80036" points="217.5,128.8332,221.5,119.8332,217.5,123.8332,213.5,119.8332,217.5,128.8332" style="stroke: #A80036; stroke-width: 1.0;"/><text fill="#000000" font-family="sans-serif" font-size="13" lengthAdjust="spacingAndGlyphs" textLength="21" x="218.5" y="95.4951">use</text></g></svg>